<?xml version="1.0" encoding="UTF-8"?>
<svg version="1.1" xmlns="http://www.w3.org/2000/svg" width="500" height="500">
<path d="M0 0 C165 0 330 0 500 0 C500 165 500 330 500 500 C335 500 170 500 0 500 C0 335 0 170 0 0 Z " fill="#FEFEFE" transform="translate(0,0)"/>
<path d="M0 0 C2.97 0 5.94 0 9 0 C11.24848997 2.80007297 12.53556489 4.82999229 14 8 C14.70778796 9.34394457 15.41714978 10.68706158 16.12817383 12.02929688 C16.82523739 13.42373373 17.51807649 14.82028903 18.20703125 16.21875 C18.57728928 16.96209595 18.9475473 17.70544189 19.32902527 18.47131348 C20.49400272 20.8123342 21.6533428 23.15609287 22.8125 25.5 C23.60835039 27.10174817 24.40457112 28.70331238 25.20117188 30.3046875 C27.13839573 34.20101485 29.07057412 38.09980568 31 42 C34.16670796 38.2343033 36.09112522 33.9573608 38.1953125 29.55078125 C38.58822479 28.73755905 38.98113708 27.92433685 39.38595581 27.08647156 C40.63637979 24.49708934 41.88104467 21.90499522 43.125 19.3125 C44.37686883 16.70967804 45.62996723 14.10746573 46.88546753 11.50639343 C47.66570045 9.88934689 48.4436935 8.27121738 49.2192688 6.65193176 C51.8883434 1.1116566 51.8883434 1.1116566 53 0 C55.97 0 58.94 0 62 0 C62 20.46 62 40.92 62 62 C59.03 62 56.06 62 53 62 C52.67 49.13 52.34 36.26 52 23 C49.916875 27.640625 47.83375 32.28125 45.6875 37.0625 C45.03612061 38.51277588 44.38474121 39.96305176 43.71362305 41.45727539 C43.19324463 42.61735107 42.67286621 43.77742676 42.13671875 44.97265625 C41.60780029 46.15093994 41.07888184 47.32922363 40.53393555 48.54321289 C38.99250758 52.01688448 37.48944528 55.50380538 36 59 C32.7 59 29.4 59 26 59 C21.05 48.11 16.1 37.22 11 26 C10.67 37.88 10.34 49.76 10 62 C6.7 62 3.4 62 0 62 C0 41.54 0 21.08 0 0 Z " fill="#575757" transform="translate(45,247)"/>
<path d="M0 0 C0.33 -0.99 0.66 -1.98 1 -3 C3.97 -3 6.94 -3 10 -3 C10 11.52 10 26.04 10 41 C7.03 41 4.06 41 1 41 C0.67 40.34 0.34 39.68 0 39 C-0.67417969 39.32097656 -1.34835937 39.64195312 -2.04296875 39.97265625 C-8.2521905 42.12988917 -16.29470177 42.2052029 -22.58203125 40.16015625 C-28.02165507 37.07111557 -31.74757187 32.00616435 -33.609375 26.05078125 C-34.83125817 19.63589462 -34.67658985 13.63121457 -31.40234375 7.88671875 C-23.35149639 -2.94492269 -12.10231562 -6.31425163 0 0 Z " fill="#595959" transform="translate(448,268)"/>
<path d="M0 0 C9 0 9 0 11.71484375 2.38671875 C12.81505859 4.02060547 12.81505859 4.02060547 13.9375 5.6875 C14.7791616 6.88987372 15.6216324 8.09168134 16.46484375 9.29296875 C17.09302002 10.21988525 17.09302002 10.21988525 17.73388672 11.16552734 C19.71135383 14.0306812 21.85691035 16.75792057 24 19.5 C24.82248111 20.56834387 25.64409099 21.63735901 26.46484375 22.70703125 C28.24408026 25.02052694 30.0288434 27.32965121 31.81640625 29.63671875 C32.27595703 30.23097656 32.73550781 30.82523437 33.20898438 31.4375 C34.09302049 32.58049619 34.97838014 33.72247026 35.86523438 34.86328125 C38.8875378 38.7750756 38.8875378 38.7750756 40 41 C40.33 27.47 40.66 13.94 41 0 C43.97 0 46.94 0 50 0 C50 20.46 50 40.92 50 62 C41 62 41 62 37.76953125 58.9140625 C36.75485036 57.50481151 35.77062368 56.07329717 34.8125 54.625 C33.70742236 53.06780744 32.6005883 51.51186016 31.4921875 49.95703125 C30.9259668 49.14443848 30.35974609 48.3318457 29.77636719 47.49462891 C26.8059196 43.3231015 23.61338294 39.3284067 20.4375 35.3125 C19.28770189 33.85235324 18.14042421 32.390217 16.99609375 30.92578125 C16.51325928 30.31130127 16.0304248 29.69682129 15.53295898 29.0637207 C13.58913039 26.44687357 11.80821702 23.71232552 10 21 C9.67 34.53 9.34 48.06 9 62 C6.03 62 3.06 62 0 62 C0 41.54 0 21.08 0 0 Z " fill="#555555" transform="translate(261,247)"/>
<path d="M0 0 C5.20401906 2.9962534 8.6417486 6.34878027 10.6875 12.0625 C11.69319142 19.37733369 11.94628097 27.01658716 7.953125 33.484375 C4.35380947 37.97241042 0.40104433 40.85386562 -5.3125 42.0625 C-11.65762378 42.66069349 -17.78528488 42.51843989 -23.3125 39.0625 C-28.24726142 34.56573515 -31.84437326 30.00891729 -32.6484375 23.23046875 C-32.74897875 15.55917115 -32.04005058 10.0197101 -26.6640625 4.3125 C-18.92635463 -2.71563641 -9.69211737 -4.2457916 0 0 Z " fill="#595959" transform="translate(354.3125,266.9375)"/>
<path d="M0 0 C5.701576 3.35113039 7.93652091 7.66540059 10.046875 13.73828125 C10.5625 16.3125 10.5625 16.3125 10.5625 24.3125 C-0.3275 24.3125 -11.2175 24.3125 -22.4375 24.3125 C-19.69296758 30.56513162 -19.69296758 30.56513162 -14.4375 33.3125 C-9.32997668 33.72231614 -4.38336738 33.75552954 0.5625 32.3125 C2.2125 34.2925 3.8625 36.2725 5.5625 38.3125 C-1.25267677 42.66664071 -7.4323162 43.03276075 -15.4375 42.3125 C-21.62227285 40.6070643 -25.97030675 36.62371005 -29.4375 31.3125 C-32.51281502 24.89947106 -32.34021882 18.21070252 -30.25 11.5 C-23.75727824 0.08176518 -12.79474286 -5.83745251 0 0 Z " fill="#5C5C5C" transform="translate(149.4375,266.6875)"/>
<path d="M0 0 C0 0.66 0 1.32 0 2 C-2.625 4.25 -2.625 4.25 -6 6 C-8.875 5.25 -8.875 5.25 -12 4 C-15.4581548 3.69563057 -18.83317707 3.41658854 -22 5 C-21.67 6.65 -21.34 8.3 -21 10 C-19.92621094 10.29132813 -18.85242188 10.58265625 -17.74609375 10.8828125 C-1.14315149 15.57867281 -1.14315149 15.57867281 2 21 C2.99991806 25.34579773 2.50196237 28.78472268 0.8125 32.875 C-2.64608292 36.92989032 -6.72651001 38.79305033 -12.00390625 39.2734375 C-20.31317902 39.51058469 -25.98017351 38.52892032 -33 34 C-30.42215154 31.35247996 -28.08351902 29.05567935 -25 27 C-24.360625 27.495 -23.72125 27.99 -23.0625 28.5 C-19.04053773 30.4699407 -15.41791136 30.63703965 -11 30 C-10.01 29.34 -9.02 28.68 -8 28 C-8.495 25.525 -8.495 25.525 -9 23 C-10.62808594 22.54560547 -10.62808594 22.54560547 -12.2890625 22.08203125 C-13.73460284 21.6596331 -15.17990289 21.23641202 -16.625 20.8125 C-17.69427734 20.51762695 -17.69427734 20.51762695 -18.78515625 20.21679688 C-23.90715299 18.68959601 -27.14337445 16.72016034 -31 13 C-32.60654601 9.78690798 -32.46917159 6.48527466 -32 3 C-29.85974011 -0.8524678 -27.27262142 -2.94930341 -23.109375 -4.48828125 C-14.25237417 -6.63692404 -7.62947853 -4.63395659 0 0 Z " fill="#595959" transform="translate(250,270)"/>
<path d="M0 0 C4.06950422 1.37814582 6.42569356 3.98222191 9.41333008 6.99511719 C10.0277446 7.60333313 10.64215912 8.21154907 11.27519226 8.8381958 C12.56851097 10.12442324 13.85672952 11.41579668 15.14013672 12.71191406 C17.10754103 14.69319905 19.09776429 16.64930249 21.09106445 18.60449219 C22.34577204 19.85824872 23.5990766 21.11341125 24.85083008 22.37011719 C25.44761063 22.95363953 26.04439117 23.53716187 26.65925598 24.1383667 C28.91687793 26.44795928 30.62011271 28.32488342 31.52563477 31.46191406 C30.41698435 35.26086959 27.88478095 37.59644227 25.13989258 40.30761719 C24.55720108 40.89746399 23.97450958 41.48731079 23.37416077 42.09503174 C22.13866101 43.33830945 20.8967306 44.57522496 19.64892578 45.80615234 C17.74923247 47.68667644 15.8806132 49.59457059 14.01293945 51.50683594 C12.80702892 52.71303696 11.59939991 53.91752286 10.38989258 55.12011719 C9.83542953 55.68986267 9.28096649 56.25960815 8.70970154 56.84661865 C4.96411289 60.4834163 2.24079875 61.93005261 -3.19995117 61.94824219 C-3.85995117 61.28824219 -4.51995117 60.62824219 -5.19995117 59.94824219 C-5.15356227 55.60314861 -4.69967603 53.52535442 -1.82885742 50.20996094 C-0.8208344 49.33535273 0.20218715 48.47780878 1.23754883 47.63574219 C2.32666813 46.69781634 3.41387215 45.75766242 4.49926758 44.81542969 C5.0488916 44.34459961 5.59851563 43.87376953 6.16479492 43.38867188 C10.24736065 39.7925032 13.99320043 35.83089067 17.80004883 31.94824219 C14.53373953 27.99319035 11.18959603 24.28240745 7.49536133 20.72167969 C6.74770508 19.99980469 6.00004883 19.27792969 5.22973633 18.53417969 C3.67715118 17.04475055 2.11706825 15.56310256 0.55004883 14.08886719 C-0.18987305 13.36957031 -0.92979492 12.65027344 -1.69213867 11.90917969 C-2.36615723 11.26770996 -3.04017578 10.62624023 -3.73461914 9.96533203 C-5.57456557 7.43257005 -5.57967989 6.01450419 -5.19995117 2.94824219 C-3.64128639 0.48719254 -2.93485172 -0.06904767 0 0 Z " fill="#585858" transform="translate(283.199951171875,153.0517578125)"/>
<path d="M0 0 C0.66 0.66 1.32 1.32 2 2 C1.85621455 6.84180765 -0.56134465 9.02851391 -3.91015625 12.30078125 C-4.39705429 12.7820195 -4.88395233 13.26325775 -5.38560486 13.75907898 C-6.93539908 15.28657021 -8.49854192 16.79952748 -10.0625 18.3125 C-11.11875194 19.3486791 -12.17410133 20.3857791 -13.22851562 21.42382812 C-15.8086422 23.95996895 -18.4009252 26.48326459 -21 29 C-19.44917485 32.77325896 -17.12109555 35.02695318 -14.17578125 37.80859375 C-12.75749023 39.17661133 -12.75749023 39.17661133 -11.31054688 40.57226562 C-9.8088985 42.01184816 -8.30319361 43.44624047 -6.78686523 44.87036133 C-5.32003255 46.25262844 -3.87257812 47.65536914 -2.42578125 49.05859375 C-1.11734253 50.30080688 -1.11734253 50.30080688 0.2175293 51.56811523 C2 54 2 54 1.90161133 56.68383789 C1 59 1 59 -1 61 C-3.21166992 61.49462891 -3.21166992 61.49462891 -6 61 C-8.41048814 59.09869067 -10.46985696 57.25487897 -12.61328125 55.0859375 C-13.22769577 54.47867828 -13.84211029 53.87141907 -14.47514343 53.24575806 C-15.76969592 51.95898354 -17.05788484 50.66577971 -18.34008789 49.36669922 C-20.30397821 47.38360512 -22.29537835 45.43155066 -24.29101562 43.48046875 C-25.54604468 42.22573009 -26.79935968 40.96927414 -28.05078125 39.7109375 C-28.94595207 38.83869034 -28.94595207 38.83869034 -29.85920715 37.94882202 C-32.44031884 35.29334907 -33.84540185 33.63299668 -34.73657227 29.98413086 C-33.69701665 25.77250066 -31.21069434 23.44449163 -28.1640625 20.54296875 C-27.2722377 19.66032097 -27.2722377 19.66032097 -26.36239624 18.75984192 C-24.46355427 16.88789868 -22.54461459 15.03811041 -20.625 13.1875 C-19.33983275 11.92386011 -18.05596248 10.65889969 -16.7734375 9.39257812 C-5.63221853 -1.5488601 -5.63221853 -1.5488601 0 0 Z " fill="#585858" transform="translate(221,154)"/>
<path d="M0 0 C3.3 0 6.6 0 10 0 C11.85638226 3.80619129 13.7076563 7.61481041 15.55419922 11.42578125 C16.18332711 12.72236283 16.81385541 14.01826587 17.44580078 15.31347656 C18.35296172 17.17337011 19.25508803 19.03563141 20.15625 20.8984375 C20.70087891 22.01911621 21.24550781 23.13979492 21.80664062 24.29443359 C23 27 23 27 23 29 C23.66 29 24.32 29 25 29 C25.22558594 28.24332031 25.45117188 27.48664063 25.68359375 26.70703125 C27.51114785 21.56059551 29.78873801 16.64989711 32.0625 11.6875 C32.75182617 10.16672852 32.75182617 10.16672852 33.45507812 8.61523438 C36.86872691 1.13127309 36.86872691 1.13127309 38 0 C39.51928038 -0.07179964 41.04167482 -0.08392007 42.5625 -0.0625 C43.38878906 -0.05347656 44.21507812 -0.04445313 45.06640625 -0.03515625 C45.70449219 -0.02355469 46.34257812 -0.01195312 47 0 C46.32706772 4.9821912 44.27358039 9.23122337 42.21875 13.765625 C41.84520386 14.5996283 41.47165771 15.43363159 41.08679199 16.29290771 C40.29906369 18.04890425 39.50884906 19.80378729 38.71630859 21.55761719 C37.49909817 24.25199626 36.2899512 26.94988249 35.08203125 29.6484375 C34.31557302 31.3543774 33.54866175 33.06011383 32.78125 34.765625 C32.41769409 35.57598206 32.05413818 36.38633911 31.67956543 37.22125244 C29.1163413 42.8836587 29.1163413 42.8836587 28 44 C26.48071962 44.07179964 24.95832518 44.08392007 23.4375 44.0625 C22.61121094 44.05347656 21.78492188 44.04445313 20.93359375 44.03515625 C20.29550781 44.02355469 19.65742188 44.01195312 19 44 C16.45296806 38.21672168 13.9080108 32.43253373 11.36450195 26.64770508 C10.4987703 24.67939525 9.63256183 22.71129506 8.76586914 20.7434082 C7.5210464 17.91672715 6.27793368 15.08929952 5.03515625 12.26171875 C4.64658951 11.38037766 4.25802277 10.49903656 3.85768127 9.59098816 C3.31723427 8.3600518 3.31723427 8.3600518 2.76586914 7.10424805 C2.44832169 6.38254929 2.13077423 5.66085052 1.80360413 4.9172821 C1.12872661 3.30712289 0.5520935 1.65628051 0 0 Z " fill="#595959" transform="translate(366,265)"/>
<path d="M0 0 C3.0625 0.1875 3.0625 0.1875 5.0625 2.1875 C5.37001243 7.5601968 4.82961839 12.28201616 3.70703125 17.5625 C3.56510345 18.24144821 3.42317566 18.92039642 3.27694702 19.61991882 C2.81717119 21.81078325 2.34627627 23.99908353 1.875 26.1875 C1.55370619 27.70663139 1.23315591 29.22592021 0.91333008 30.74536133 C0.27178519 33.78888914 -0.37378829 36.83151891 -1.02246094 39.87353516 C-1.84725408 43.74946135 -2.65059587 47.629501 -3.4453125 51.51171875 C-3.66807861 52.59775391 -3.89084473 53.68378906 -4.12036133 54.80273438 C-4.52753289 56.78949163 -4.93368944 58.77645728 -5.33862305 60.76367188 C-8.04183812 73.8226819 -8.04183812 73.8226819 -10.25 77.1875 C-11.9375 78.1875 -11.9375 78.1875 -14.5 78.0625 C-16.9375 77.1875 -16.9375 77.1875 -18.9375 74.1875 C-18.47966577 66.83623717 -16.70706524 59.58184043 -15.25 52.375 C-15.11944214 51.72553406 -14.98888428 51.07606812 -14.85437012 50.40692139 C-4.77427953 0.30474125 -4.77427953 0.30474125 0 0 Z " fill="#5A5A5A" transform="translate(255.9375,145.8125)"/>
<path d="M0 0 C2.97 0 5.94 0 9 0 C9 5.28 9 10.56 9 16 C12.3 16 15.6 16 19 16 C19 18.64 19 21.28 19 24 C15.7 24 12.4 24 9 24 C9.11395555 27.25073211 9.24070655 30.50009857 9.375 33.75 C9.4059375 34.67039062 9.436875 35.59078125 9.46875 36.5390625 C9.50742188 37.42851562 9.54609375 38.31796875 9.5859375 39.234375 C9.63306885 40.45979004 9.63306885 40.45979004 9.68115234 41.70996094 C10.02901639 44.20840254 10.64626536 45.87644795 12 48 C14.18541552 48.6993514 14.18541552 48.6993514 16.625 48.75 C18.06875 48.8325 19.5125 48.915 21 49 C21 51.97 21 54.94 21 58 C11.35870243 58.61759201 11.35870243 58.61759201 6.5625 56.4375 C2.74586492 52.80704224 0.29832493 49.53928903 -0.32006836 44.27563477 C-0.39274659 41.19523477 -0.34940215 38.14205497 -0.25 35.0625 C-0.23195312 33.99708984 -0.21390625 32.93167969 -0.1953125 31.83398438 C-0.14845557 29.22171071 -0.08286926 26.61133774 0 24 C-2.31 24 -4.62 24 -7 24 C-7 21.36 -7 18.72 -7 16 C-4.69 16 -2.38 16 0 16 C0 10.72 0 5.44 0 0 Z " fill="#585858" transform="translate(169,251)"/>
<path d="M0 0 C3.19057334 1.62122629 5.21621057 3.96682303 7.375 6.8125 C8.80149617 11.80523661 8.7174622 16.20565767 6.375 20.8125 C3.73730404 24.35256562 2.16293638 25.61235454 -2 27 C-5.69824189 27.38928862 -8.20320172 27.29648308 -11.6875 26 C-15.54658622 22.66241192 -17.75646903 18.82686934 -18.19921875 13.6875 C-17.86056263 7.95937366 -16.0685127 4.96928068 -12 1 C-8.27083603 -0.86458199 -4.06038696 -0.56048286 0 0 Z " fill="#FBFBFB" transform="translate(441,274)"/>
<path d="M0 0 C4.23643097 0.66477519 5.89310463 2.28501861 8.73828125 5.4296875 C10.83033364 9.61379228 10.16655916 14.87328645 9.73828125 19.4296875 C8.02962403 23.10013635 6.87507952 24.7537534 3.42578125 26.8046875 C-1.50587389 27.95158404 -4.91825249 28.10142063 -9.51171875 25.8046875 C-13.04321259 22.754761 -14.82289633 20.13846787 -15.578125 15.4765625 C-15.88221111 10.33652631 -14.56541064 7.48850896 -11.26171875 3.4296875 C-10.61589844 2.61951172 -10.61589844 2.61951172 -9.95703125 1.79296875 C-6.95932012 -0.61763305 -3.69813658 -0.08816749 0 0 Z " fill="#FCFCFC" transform="translate(346.26171875,273.5703125)"/>
<path d="M0 0 C2.97 0 5.94 0 9 0 C9 14.19 9 28.38 9 43 C6.03 43 3.06 43 0 43 C0 28.81 0 14.62 0 0 Z " fill="#545454" transform="translate(198,266)"/>
<path d="M0 0 C3.67688817 1.63417252 5.94159485 3.53321238 8 7 C8 7.99 8 8.98 8 10 C0.08 10 -7.84 10 -16 10 C-14.90260429 4.51302144 -14.35725308 3.97568503 -10 1 C-6.80657621 -0.59671189 -3.47454369 -0.37418163 0 0 Z " fill="#FAFAFA" transform="translate(143,273)"/>
<path d="M0 0 C3.5 0.25 3.5 0.25 5.5 2.25 C5.82954432 5.34771665 5.95334601 7.42331023 4.4375 10.1875 C1.31857551 11.89787795 -1.15557801 11.05513863 -4.5 10.25 C-5.88125018 7.48749964 -5.69079306 5.30268901 -5.5 2.25 C-3.5 0.25 -3.5 0.25 0 0 Z " fill="#595959" transform="translate(202.5,247.75)"/>
</svg>
